<?xml version="1.0" standalone="no"?>
<!DOCTYPE svg PUBLIC "-//W3C//DTD SVG 20010904//EN"
 "http://www.w3.org/TR/2001/REC-SVG-20010904/DTD/svg10.dtd">
<svg version="1.0" xmlns="http://www.w3.org/2000/svg"
 width="1024.000000pt" height="1024.000000pt" viewBox="0 0 1024.000000 1024.000000"
 preserveAspectRatio="xMidYMid meet">
<metadata>
Created by potrace 1.14, written by Peter Selinger 2001-2017
</metadata>
<g transform="translate(0.000000,1024.000000) scale(0.100000,-0.100000)"
fill="#000000" stroke="none">
<path d="M1110 6735 l0 -195 450 0 450 0 0 -1485 0 -1485 -450 0 -450 0 0
-195 0 -195 1105 0 1105 0 0 195 0 195 -430 0 -430 0 0 1680 0 1680 -675 0
-675 0 0 -195z"/>
<path d="M7120 6735 l0 -195 448 -2 447 -3 0 -1480 0 -1480 -447 -3 -448 -2 0
-195 0 -195 1105 0 1105 0 0 195 0 195 -430 0 -430 0 0 1680 0 1680 -675 0
-675 0 0 -195z"/>
<path d="M4936 5859 c-96 -13 -176 -35 -276 -76 -371 -153 -622 -478 -712
-925 -20 -100 -23 -142 -23 -363 0 -201 4 -268 18 -340 55 -272 166 -499 329
-671 196 -207 427 -317 726 -346 526 -50 984 213 1190 685 80 182 119 363 129
597 29 706 -298 1241 -857 1403 -150 44 -353 58 -524 36z m304 -370 c178 -29
349 -145 455 -309 210 -324 232 -917 49 -1284 -48 -96 -82 -142 -155 -211
-135 -128 -247 -175 -435 -183 -92 -3 -140 0 -198 12 -302 68 -511 337 -571
736 -22 140 -19 383 5 522 23 137 74 284 131 382 64 108 185 223 290 275 130
64 277 85 429 60z"/>
</g>
</svg>
